{
  "accessors": [
    {
      "bufferView": 3,
      "componentType": 5126,
      "count": 238,
      "max": [
        184.81732177734375,
        1629.6219482421875,
        1379.8568115234375
      ],
      "min": [
        -184.81732177734375,
        1491.52880859375,
        1241.7637939453125
      ],
      "type": "VEC3"
    },
    {
      "bufferView": 3,
      "byteOffset": 2856,
      "componentType": 5126,
      "count": 238,
      "max": [
        0.9510607719421387,
        1.0,
        1.0
      ],
      "min": [
        -0.9510607719421387,
        -1.0,
        -1.0
      ],
      "type": "VEC3"
    },
    {
      "bufferView": 2,
      "componentType": 5126,
      "count": 238,
      "max": [
        1.0000001192092896,
        1.0
      ],
      "min": [
        0.0,
        0.0
      ],
      "type": "VEC2"
    },
    {
      "bufferView": 1,
      "componentType": 5125,
      "count": 1080,
      "type": "SCALAR"
    },
    {
      "bufferView": 3,
      "byteOffset": 5712,
      "componentType": 5126,
      "count": 451,
      "max": [
        667.39111328125,
        3990.580322265625,
        3032.735595703125
      ],
      "min": [
        -648.7960815429688,
        818.9906005859375,
        1658.0712890625
      ],
      "type": "VEC3"
    },
    {
      "bufferView": 3,
      "byteOffset": 11124,
      "componentType": 5126,
      "count": 451,
      "max": [
        0.9992550015449524,
        0.9999510645866394,
        0.9645646810531616
      ],
      "min": [
        -0.9987087249755859,
        -0.28797686100006104,
        -0.9999980330467224
      ],
      "type": "VEC3"
    },
    {
      "bufferView": 4,
      "componentType": 5126,
      "count": 451,
      "max": [
        0.9999141693115234,
        0.738558828830719,
        0.9999907612800598,
        1.0
      ],
      "min": [
        -0.963699221611023,
        -0.5911838412284851,
        -0.9948079586029053,
        1.0
      ],
      "type": "VEC4"
    },
    {
      "bufferView": 2,
      "byteOffset": 1904,
      "componentType": 5126,
      "count": 451,
      "max": [
        0.9998714327812195,
        0.8465999960899353
      ],
      "min": [
        0.00012851282372139394,
        0.00012851282372139394
      ],
      "type": "VEC2"
    },
    {
      "bufferView": 1,
      "byteOffset": 4320,
      "componentType": 5125,
      "count": 2361,
      "type": "SCALAR"
    },
    {
      "bufferView": 3,
      "byteOffset": 16536,
      "componentType": 5126,
      "count": 731,
      "max": [
        56.14451217651367,
        394.3287658691406,
        331.0070495605469
      ],
      "min": [
        -56.39973068237305,
        251.02732849121094,
        195.1311798095703
      ],
      "type": "VEC3"
    },
    {
      "bufferView": 3,
      "byteOffset": 25308,
      "componentType": 5126,
      "count": 731,
      "max": [
        0.9977239966392517,
        0.9805738925933838,
        0.9898647665977478
      ],
      "min": [
        -0.9982163906097412,
        -0.9990338683128357,
        -0.9896424412727356
      ],
      "type": "VEC3"
    },
    {
      "bufferView": 4,
      "byteOffset": 7216,
      "componentType": 5126,
      "count": 731,
      "max": [
        0.9999511241912842,
        0.9902890920639038,
        0.9890143871307373,
        1.0
      ],
      "min": [
        -0.9999574422836304,
        -0.8905399441719055,
        -0.9999324083328247,
        -1.0
      ],
      "type": "VEC4"
    },
    {
      "bufferView": 2,
      "byteOffset": 5512,
      "componentType": 5126,
      "count": 731,
      "max": [
        0.9643834829330444,
        0.9998157620429993
      ],
      "min": [
        0.00018419482512399554,
        0.00018419482512399554
      ],
      "type": "VEC2"
    },
    {
      "bufferView": 1,
      "byteOffset": 13764,
      "componentType": 5125,
      "count": 2838,
      "type": "SCALAR"
    },
    {
      "bufferView": 3,
      "byteOffset": 34080,
      "componentType": 5126,
      "count": 953,
      "max": [
        1644.7584228515625,
        2934.95751953125,
        995.8201904296875
      ],
      "min": [
        -1644.7584228515625,
        -26.833534240722656,
        -1564.7454833984375
      ],
      "type": "VEC3"
    },
    {
      "bufferView": 3,
      "byteOffset": 45516,
      "componentType": 5126,
      "count": 953,
      "max": [
        0.9995320439338684,
        0.9993762969970703,
        0.999864935874939
      ],
      "min": [
        -0.9995320439338684,
        -0.999219536781311,
        -0.9989498257637024
      ],
      "type": "VEC3"
    },
    {
      "bufferView": 4,
      "byteOffset": 18912,
      "componentType": 5126,
      "count": 953,
      "max": [
        0.9993175864219666,
        0.999946653842926,
        0.9977380037307739,
        1.0
      ],
      "min": [
        -0.997528612613678,
        -0.9889634251594543,
        -0.9995932579040527,
        -1.0
      ],
      "type": "VEC4"
    },
    {
      "bufferView": 2,
      "byteOffset": 11360,
      "componentType": 5126,
      "count": 953,
      "max": [
        0.9744582772254944,
        0.999708890914917
      ],
      "min": [
        0.00029105160501785576,
        0.00029105160501785576
      ],
      "type": "VEC2"
    },
    {
      "bufferView": 1,
      "byteOffset": 25116,
      "componentType": 5125,
      "count": 4566,
      "type": "SCALAR"
    },
    {
      "bufferView": 5,
      "componentType": 5126,
      "count": 57,
      "max": [
        1.0,
        0.0010421383194625378,
        0.0009416869725100696,
        0.0,
        0.0010419763857498765,
        1.0,
        0.0007987692952156067,
        0.0,
        0.000651282723993063,
        0.0011380327632650733,
        1.0,
        0.0,
        3.370892286300659,
        2.8536794185638428,
        3.1610827445983887,
        1.0
      ],
      "min": [
        -0.0011382960947230458,
        -0.0010421384358778596,
        -5.6330751249333844e-05,
        0.0,
        -0.0010419759200885892,
        -0.0011382974917069077,
        -0.0011380225187167525,
        0.0,
        -0.0006751138134859502,
        -0.0009948838269338012,
        -0.0009715997148305178,
        0.0,
        -3.3665926456451416,
        -2.4872586727142334,
        -1.6427541971206665,
        1.0
      ],
      "type": "MAT4"
    },
    {
      "bufferView": 0,
      "componentType": 5123,
      "count": 238,
      "type": "VEC4"
    },
    {
      "bufferView": 4,
      "byteOffset": 34160,
      "componentType": 5126,
      "count": 238,
      "max": [
        1.0,
        0.1845940798521042,
        0.0,
        0.0
      ],
      "min": [
        0.8154059052467346,
        0.0,
        0.0,
        0.0
      ],
      "type": "VEC4"
    },
    {
      "bufferView": 0,
      "byteOffset": 1904,
      "componentType": 5123,
      "count": 451,
      "type": "VEC4"
    },
    {
      "bufferView": 4,
      "byteOffset": 37968,
      "componentType": 5126,
      "count": 451,
      "max": [
        1.0,
        0.49887654185295105,
        0.284359872341156,
        0.21251250803470612
      ],
      "min": [
        0.3063778281211853,
        0.0,
        0.0,
        0.0
      ],
      "type": "VEC4"
    },
    {
      "bufferView": 0,
      "byteOffset": 5512,
      "componentType": 5123,
      "count": 731,
      "type": "VEC4"
    },
    {
      "bufferView": 4,
      "byteOffset": 45184,
      "componentType": 5126,
      "count": 731,
      "max": [
        1.0,
        0.04062483459711075,
        0.0,
        0.0
      ],
      "min": [
        0.9593751430511475,
        0.0,
        0.0,
        0.0
      ],
      "type": "VEC4"
    },
    {
      "bufferView": 0,
      "byteOffset": 11360,
      "componentType": 5123,
      "count": 953,
      "type": "VEC4"
    },
    {
      "bufferView": 4,
      "byteOffset": 56880,
      "componentType": 5126,
      "count": 953,
      "max": [
        1.0,
        0.4917077124118805,
        0.30831053853034973,
        0.21717704832553864
      ],
      "min": [
        0.28933775424957275,
        0.0,
        0.0,
        0.0
      ],
      "type": "VEC4"
    },
    {
      "bufferView": 6,
      "componentType": 5126,
      "count": 155,
      "max": [
        3.3333332538604736
      ],
      "min": [
        0.0
      ],
      "type": "SCALAR"
    },
    {
      "bufferView": 8,
      "componentType": 5126,
      "count": 155,
      "max": [
        -0.4384949505329132,
        3.159211701131426e-07,
        -8.780045391176827e-06,
        0.8987336754798889
      ],
      "min": [
        -0.4758947193622589,
        -5.351791543262152e-08,
        -8.785727914073505e-06,
        0.8795022368431091
      ],
      "type": "VEC4"
    },
    {
      "bufferView": 6,
      "byteOffset": 620,
      "componentType": 5126,
      "count": 117,
      "max": [
        3.3333332538604736
      ],
      "min": [
        0.0
      ],
      "type": "SCALAR"
    },
    {
      "bufferView": 7,
      "componentType": 5126,
      "count": 117,
      "max": [
        -2.8421709430404007e-13,
        0.41500771045684814,
        -1.5343282200319663e-13
      ],
      "min": [
        -2.8421709430404007e-13,
        0.41500771045684814,
        -1.5409895581797173e-13
      ],
      "type": "VEC3"
    },
    {
      "bufferView": 6,
      "byteOffset": 1088,
      "componentType": 5126,
      "count": 157,
      "max": [
        3.3333332538604736
      ],
      "min": [
        0.0
      ],
      "type": "SCALAR"
    },
    {
      "bufferView": 8,
      "byteOffset": 2480,
      "componentType": 5126,
      "count": 157,
      "max": [
        -0.05960888788104057,
        1.845804042943655e-08,
        -1.2304774372751126e-06,
        0.9982218146324158
      ],
      "min": [
        -0.07713581621646881,
        -3.1610571937790155e-09,
        -1.2306159078434575e-06,
        0.9970206022262573
      ],
      "type": "VEC4"
    },
    {
      "bufferView": 6,
      "byteOffset": 1716,
      "componentType": 5126,
      "count": 103,
      "max": [
        3.3333332538604736
      ],
      "min": [
        0.0
      ],
      "type": "SCALAR"
    },
    {
      "bufferView": 8,
      "byteOffset": 4992,
      "componentType": 5126,
      "count": 103,
      "max": [
        0.4419158399105072,
        -1.0709644811868202e-05,
        8.202433491533156e-06,
        0.8984957337379456
      ],
      "min": [
        0.438982218503952,
        -1.0736389413068537e-05,
        8.167394298652653e-06,
        0.897056519985199
      ],
      "type": "VEC4"
    },
    {
      "bufferView": 6,
      "byteOffset": 2128,
      "componentType": 5126,
      "count": 159,
      "max": [
        3.3333332538604736
      ],
      "min": [
        0.0
      ],
      "type": "SCALAR"
    },
    {
      "bufferView": 8,
      "byteOffset": 6640,
      "componentType": 5126,
      "count": 159,
      "max": [
        0.00450968649238348,
        2.137948513336596e-06,
        -0.24747148156166077,
        0.9688851237297058
      ],
      "min": [
        0.004409244749695063,
        -3.6248198739485815e-05,
        -0.26041898131370544,
        0.965485155582428
      ],
      "type": "VEC4"
    },
    {
      "bufferView": 6,
      "byteOffset": 2764,
      "componentType": 5126,
      "count": 153,
      "max": [
        3.3333332538604736
      ],
      "min": [
        0.0
      ],
      "type": "SCALAR"
    },
    {
      "bufferView": 8,
      "byteOffset": 9184,
      "componentType": 5126,
      "count": 153,
      "max": [
        0.010864176787436008,
        9.762398178736476e-08,
        -0.6092742681503296,
        0.7928875088691711
      ],
      "min": [
        0.010686785914003849,
        -0.00019434171554166824,
        -0.6271393895149231,
        0.7788313031196594
      ],
      "type": "VEC4"
    },
    {
      "bufferView": 6,
      "byteOffset": 3376,
      "componentType": 5126,
      "count": 161,
      "max": [
        3.3333332538604736
      ],
      "min": [
        0.0
      ],
      "type": "SCALAR"
    },
    {
      "bufferView": 8,
      "byteOffset": 11632,
      "componentType": 5126,
      "count": 161,
      "max": [
        -0.0028955114539712667,
        8.483152100779989e-07,
        0.18523739278316498,
        0.9833869934082031
      ],
      "min": [
        -0.0031429314985871315,
        -0.0001893154694698751,
        0.18149428069591522,
        0.9826894998550415
      ],
      "type": "VEC4"
    },
    {
      "bufferView": 6,
      "byteOffset": 4020,
      "componentType": 5126,
      "count": 127,
      "max": [
        3.3333332538604736
      ],
      "min": [
        0.0
      ],
      "type": "SCALAR"
    },
    {
      "bufferView": 8,
      "byteOffset": 14208,
      "componentType": 5126,
      "count": 127,
      "max": [
        -0.03837985917925835,
        2.1350022052502027e-06,
        -0.13177838921546936,
        0.990535318851471
      ],
      "min": [
        -0.038835328072309494,
        -0.00018385528528597206,
        -0.1317831128835678,
        0.9905182123184204
      ],
      "type": "VEC4"
    },
    {
      "bufferView": 6,
      "byteOffset": 4528,
      "componentType": 5126,
      "count": 155,
      "max": [
        3.3333332538604736
      ],
      "min": [
        0.0
      ],
      "type": "SCALAR"
    },
    {
      "bufferView": 8,
      "byteOffset": 16240,
      "componentType": 5126,
      "count": 155,
      "max": [
        -0.672829806804657,
        -0.26422351598739624,
        -0.21696218848228455,
        0.6504762172698975
      ],
      "min": [
        -0.6782286167144775,
        -0.27624037861824036,
        -0.22603604197502136,
        0.647996187210083
      ],
      "type": "VEC4"
    },
    {
      "bufferView": 6,
      "byteOffset": 5148,
      "componentType": 5126,
      "count": 151,
      "max": [
        3.3333332538604736
      ],
      "min": [
        0.0
      ],
      "type": "SCALAR"
    },
    {
      "bufferView": 8,
      "byteOffset": 18720,
      "componentType": 5126,
      "count": 151,
      "max": [
        0.12824171781539917,
        0.47436806559562683,
        0.07873434573411942,
        0.8697192072868347
      ],
      "min": [
        0.1157260611653328,
        0.473283052444458,
        0.07190888375043869,
        0.8679620623588562
      ],
      "type": "VEC4"
    },
    {
      "bufferView": 6,
      "byteOffset": 5752,
      "componentType": 5126,
      "count": 161,
      "max": [
        3.3333332538604736
      ],
      "min": [
        0.0
      ],
      "type": "SCALAR"
    },
    {
      "bufferView": 8,
      "byteOffset": 21136,
      "componentType": 5126,
      "count": 161,
      "max": [
        0.17354309558868408,
        0.5471458435058594,
        0.6606088280677795,
        0.5079059600830078
      ],
      "min": [
        -0.17167535424232483,
        -0.5399754047393799,
        -0.6543282270431519,
        -0.49943041801452637
      ],
      "type": "VEC4"
    },
    {
      "bufferView": 6,
      "byteOffset": 6396,
      "componentType": 5126,
      "count": 127,
      "max": [
        3.3333332538604736
      ],
      "min": [
        0.0
      ],
      "type": "SCALAR"
    },
    {
      "bufferView": 8,
      "byteOffset": 23712,
      "componentType": 5126,
      "count": 127,
      "max": [
        0.1698399931192398,
        -0.2258005142211914,
        0.1225648745894432,
        0.9521017670631409
      ],
      "min": [
        0.16626346111297607,
        -0.2265685349702835,
        0.12192730605602264,
        0.9512684941291809
      ],
      "type": "VEC4"
    },
    {
      "bufferView": 6,
      "byteOffset": 6904,
      "componentType": 5126,
      "count": 117,
      "max": [
        3.3333332538604736
      ],
      "min": [
        0.0
      ],
      "type": "SCALAR"
    },
    {
      "bufferView": 7,
      "byteOffset": 1404,
      "componentType": 5126,
      "count": 117,
      "max": [
        2.1653249859809875e-08,
        0.41154366731643677,
        1.1102230246251565e-16
      ],
      "min": [
        2.1653249859809875e-08,
        0.41154366731643677,
        -2.220446049250313e-16
      ],
      "type": "VEC3"
    },
    {
      "bufferView": 6,
      "byteOffset": 7372,
      "componentType": 5126,
      "count": 143,
      "max": [
        3.3333332538604736
      ],
      "min": [
        0.0
      ],
      "type": "SCALAR"
    },
    {
      "bufferView": 8,
      "byteOffset": 25744,
      "componentType": 5126,
      "count": 143,
      "max": [
        -0.30968737602233887,
        0.09944295138120651,
        0.10531354695558548,
        0.9401617050170898
      ],
      "min": [
        -0.31352072954177856,
        0.09815817326307297,
        0.10259026288986206,
        0.9384694695472717
      ],
      "type": "VEC4"
    },
    {
      "bufferView": 6,
      "byteOffset": 7944,
      "componentType": 5126,
      "count": 161,
      "max": [
        3.3333332538604736
      ],
      "min": [
        0.0
      ],
      "type": "SCALAR"
    },
    {
      "bufferView": 8,
      "byteOffset": 28032,
      "componentType": 5126,
      "count": 161,
      "max": [
        0.8340746164321899,
        0.18763530254364014,
        0.2870364189147949,
        -0.43265822529792786
      ],
      "min": [
        0.8309426307678223,
        0.17723391950130463,
        0.2860461473464966,
        -0.4423895478248596
      ],
      "type": "VEC4"
    },
    {
      "bufferView": 6,
      "byteOffset": 8588,
      "componentType": 5126,
      "count": 159,
      "max": [
        3.3333332538604736
      ],
      "min": [
        0.0
      ],
      "type": "SCALAR"
    },
    {
      "bufferView": 8,
      "byteOffset": 30608,
      "componentType": 5126,
      "count": 159,
      "max": [
        -0.0041611394844949245,
        3.2628791814204305e-05,
        0.26041895151138306,
        0.9688851833343506
      ],
      "min": [
        -0.004509161692112684,
        1.8192618966850205e-08,
        0.2474755495786667,
        0.965485155582428
      ],
      "type": "VEC4"
    },
    {
      "bufferView": 6,
      "byteOffset": 9224,
      "componentType": 5126,
      "count": 151,
      "max": [
        3.3333332538604736
      ],
      "min": [
        0.0
      ],
      "type": "SCALAR"
    },
    {
      "bufferView": 8,
      "byteOffset": 33152,
      "componentType": 5126,
      "count": 151,
      "max": [
        -0.010419604368507862,
        0.00019089427951257676,
        0.6271392107009888,
        0.792887270450592
      ],
      "min": [
        -0.010858950205147266,
        -1.9712931020876567e-07,
        0.6092790961265564,
        0.7788314819335938
      ],
      "type": "VEC4"
    },
    {
      "bufferView": 6,
      "byteOffset": 9828,
      "componentType": 5126,
      "count": 161,
      "max": [
        3.3333332538604736
      ],
      "min": [
        0.0
      ],
      "type": "SCALAR"
    },
    {
      "bufferView": 8,
      "byteOffset": 35568,
      "componentType": 5126,
      "count": 161,
      "max": [
        0.0035180526319891214,
        0.00018960786110255867,
        -0.1814943104982376,
        0.9833869934082031
      ],
      "min": [
        0.0031427121721208096,
        -1.1162538839926128e-06,
        -0.1852266639471054,
        0.9826894998550415
      ],
      "type": "VEC4"
    },
    {
      "bufferView": 6,
      "byteOffset": 10472,
      "componentType": 5126,
      "count": 117,
      "max": [
        3.3333332538604736
      ],
      "min": [
        0.0
      ],
      "type": "SCALAR"
    },
    {
      "bufferView": 8,
      "byteOffset": 38144,
      "componentType": 5126,
      "count": 117,
      "max": [
        -0.03186390548944473,
        0.08278188109397888,
        0.13352179527282715,
        0.9870736598968506
      ],
      "min": [
        -0.03233703225851059,
        0.0827178880572319,
        0.13348212838172913,
        0.9870582818984985
      ],
      "type": "VEC4"
    },
    {
      "bufferView": 6,
      "byteOffset": 10940,
      "componentType": 5126,
      "count": 147,
      "max": [
        3.3333332538604736
      ],
      "min": [
        0.0
      ],
      "type": "SCALAR"
    },
    {
      "bufferView": 8,
      "byteOffset": 40016,
      "componentType": 5126,
      "count": 147,
      "max": [
        -0.6533592343330383,
        0.22984839975833893,
        0.2729734778404236,
        0.6711443662643433
      ],
      "min": [
        -0.6575968265533447,
        0.21824346482753754,
        0.2636312246322632,
        0.6675925254821777
      ],
      "type": "VEC4"
    },
    {
      "bufferView": 6,
      "byteOffset": 11528,
      "componentType": 5126,
      "count": 161,
      "max": [
        3.3333332538604736
      ],
      "min": [
        0.0
      ],
      "type": "SCALAR"
    },
    {
      "bufferView": 8,
      "byteOffset": 42368,
      "componentType": 5126,
      "count": 161,
      "max": [
        0.012693543918430805,
        0.5283440947532654,
        -0.13917545974254608,
        0.8376707434654236
      ],
      "min": [
        -0.00022340512077789754,
        0.5260140895843506,
        -0.14662422239780426,
        0.8375074863433838
      ],
      "type": "VEC4"
    },
    {
      "bufferView": 6,
      "byteOffset": 12172,
      "componentType": 5126,
      "count": 5,
      "max": [
        3.3333332538604736
      ],
      "min": [
        0.0
      ],
      "type": "SCALAR"
    },
    {
      "bufferView": 7,
      "byteOffset": 2808,
      "componentType": 5126,
      "count": 5,
      "max": [
        -2.9802322387695313e-08,
        0.7823770642280579,
        8.381903171539307e-09
      ],
      "min": [
        -2.9802322387695313e-08,
        0.7823770642280579,
        8.381902283360887e-09
      ],
      "type": "VEC3"
    },
    {
      "bufferView": 6,
      "byteOffset": 12192,
      "componentType": 5126,
      "count": 161,
      "max": [
        3.3333332538604736
      ],
      "min": [
        0.0
      ],
      "type": "SCALAR"
    },
    {
      "bufferView": 8,
      "byteOffset": 44944,
      "componentType": 5126,
      "count": 161,
      "max": [
        -0.3228980004787445,
        0.6472639441490173,
        -0.5804263353347778,
        0.374252587556839
      ],
      "min": [
        -0.3320179879665375,
        0.6318643689155579,
        -0.5967004895210266,
        0.36606693267822266
      ],
      "type": "VEC4"
    },
    {
      "bufferView": 6,
      "byteOffset": 12836,
      "componentType": 5126,
      "count": 157,
      "max": [
        3.3333332538604736
      ],
      "min": [
        0.0
      ],
      "type": "SCALAR"
    },
    {
      "bufferView": 8,
      "byteOffset": 47520,
      "componentType": 5126,
      "count": 157,
      "max": [
        0.19573324918746948,
        -0.23642639815807343,
        0.07383403927087784,
        0.9492723941802979
      ],
      "min": [
        0.19352063536643982,
        -0.2374144047498703,
        0.07117657363414764,
        0.9488655924797058
      ],
      "type": "VEC4"
    },
    {
      "bufferView": 6,
      "byteOffset": 13464,
      "componentType": 5126,
      "count": 119,
      "max": [
        3.3333332538604736
      ],
      "min": [
        0.0
      ],
      "type": "SCALAR"
    },
    {
      "bufferView": 8,
      "byteOffset": 50032,
      "componentType": 5126,
      "count": 119,
      "max": [
        -0.04771001264452934,
        0.24014677107334137,
        -0.3227485120296478,
        0.9142853617668152
      ],
      "min": [
        -0.048368021845817566,
        0.23867568373680115,
        -0.32727620005607605,
        0.9130432605743408
      ],
      "type": "VEC4"
    },
    {
      "bufferView": 6,
      "byteOffset": 13940,
      "componentType": 5126,
      "count": 153,
      "max": [
        3.3333332538604736
      ],
      "min": [
        0.0
      ],
      "type": "SCALAR"
    },
    {
      "bufferView": 8,
      "byteOffset": 51936,
      "componentType": 5126,
      "count": 153,
      "max": [
        0.8801398873329163,
        -0.3266434371471405,
        0.05371047183871269,
        -0.3362377882003784
      ],
      "min": [
        0.8771215677261353,
        -0.33082228899002075,
        0.05174741521477699,
        -0.3476775288581848
      ],
      "type": "VEC4"
    },
    {
      "bufferView": 6,
      "byteOffset": 14552,
      "componentType": 5126,
      "count": 154,
      "max": [
        3.3333332538604736
      ],
      "min": [
        0.0
      ],
      "type": "SCALAR"
    },
    {
      "bufferView": 7,
      "byteOffset": 2868,
      "componentType": 5126,
      "count": 154,
      "max": [
        1.0419344343241268e-16,
        0.19321875274181366,
        0.4692455530166626
      ],
      "min": [
        1.0419344343241268e-16,
        0.19321875274181366,
        0.3850513696670532
      ],
      "type": "VEC3"
    },
    {
      "bufferView": 6,
      "byteOffset": 15168,
      "componentType": 5126,
      "count": 49,
      "max": [
        3.3333332538604736
      ],
      "min": [
        0.0
      ],
      "type": "SCALAR"
    },
    {
      "bufferView": 7,
      "byteOffset": 4716,
      "componentType": 5126,
      "count": 49,
      "max": [
        -1.9736032808026494e-09,
        0.28128495812416077,
        -6.526283868879545e-08
      ],
      "min": [
        -1.9736035028472543e-09,
        0.28128495812416077,
        -6.526283868879545e-08
      ],
      "type": "VEC3"
    },
    {
      "bufferView": 6,
      "byteOffset": 15364,
      "componentType": 5126,
      "count": 105,
      "max": [
        3.3333332538604736
      ],
      "min": [
        0.0
      ],
      "type": "SCALAR"
    },
    {
      "bufferView": 7,
      "byteOffset": 5304,
      "componentType": 5126,
      "count": 105,
      "max": [
        -2.5741905661275544e-16,
        -0.9522925615310669,
        -0.15931250154972076
      ],
      "min": [
        -2.5741905661275544e-16,
        -0.9522925615310669,
        -0.21835969388484955
      ],
      "type": "VEC3"
    }
  ],
  "animations": [
    {
      "channels": [
        {
          "sampler": 0,
          "target": {
            "node": 22,
            "path": "rotation"
          }
        },
        {
          "sampler": 1,
          "target": {
            "node": 21,
            "path": "translation"
          }
        },
        {
          "sampler": 2,
          "target": {
            "node": 21,
            "path": "rotation"
          }
        },
        {
          "sampler": 3,
          "target": {
            "node": 20,
            "path": "rotation"
          }
        },
        {
          "sampler": 4,
          "target": {
            "node": 28,
            "path": "rotation"
          }
        },
        {
          "sampler": 5,
          "target": {
            "node": 27,
            "path": "rotation"
          }
        },
        {
          "sampler": 6,
          "target": {
            "node": 26,
            "path": "rotation"
          }
        },
        {
          "sampler": 7,
          "target": {
            "node": 25,
            "path": "rotation"
          }
        },
        {
          "sampler": 8,
          "target": {
            "node": 24,
            "path": "rotation"
          }
        },
        {
          "sampler": 9,
          "target": {
            "node": 34,
            "path": "rotation"
          }
        },
        {
          "sampler": 10,
          "target": {
            "node": 33,
            "path": "rotation"
          }
        },
        {
          "sampler": 11,
          "target": {
            "node": 32,
            "path": "rotation"
          }
        },
        {
          "sampler": 12,
          "target": {
            "node": 31,
            "path": "translation"
          }
        },
        {
          "sampler": 13,
          "target": {
            "node": 31,
            "path": "rotation"
          }
        },
        {
          "sampler": 14,
          "target": {
            "node": 30,
            "path": "rotation"
          }
        },
        {
          "sampler": 15,
          "target": {
            "node": 40,
            "path": "rotation"
          }
        },
        {
          "sampler": 16,
          "target": {
            "node": 39,
            "path": "rotation"
          }
        },
        {
          "sampler": 17,
          "target": {
            "node": 38,
            "path": "rotation"
          }
        },
        {
          "sampler": 18,
          "target": {
            "node": 37,
            "path": "rotation"
          }
        },
        {
          "sampler": 19,
          "target": {
            "node": 36,
            "path": "rotation"
          }
        },
        {
          "sampler": 20,
          "target": {
            "node": 46,
            "path": "rotation"
          }
        },
        {
          "sampler": 21,
          "target": {
            "node": 45,
            "path": "translation"
          }
        },
        {
          "sampler": 22,
          "target": {
            "node": 45,
            "path": "rotation"
          }
        },
        {
          "sampler": 23,
          "target": {
            "node": 44,
            "path": "rotation"
          }
        },
        {
          "sampler": 24,
          "target": {
            "node": 43,
            "path": "rotation"
          }
        },
        {
          "sampler": 25,
          "target": {
            "node": 42,
            "path": "rotation"
          }
        },
        {
          "sampler": 26,
          "target": {
            "node": 19,
            "path": "translation"
          }
        },
        {
          "sampler": 27,
          "target": {
            "node": 54,
            "path": "translation"
          }
        },
        {
          "sampler": 28,
          "target": {
            "node": 48,
            "path": "translation"
          }
        }
      ],
      "name": "Esqueleto|EsqueletoAction",
      "samplers": [
        {
          "input": 28,
          "interpolation": "LINEAR",
          "output": 29
        },
        {
          "input": 30,
          "interpolation": "LINEAR",
          "output": 31
        },
        {
          "input": 32,
          "interpolation": "LINEAR",
          "output": 33
        },
        {
          "input": 34,
          "interpolation": "LINEAR",
          "output": 35
        },
        {
          "input": 36,
          "interpolation": "LINEAR",
          "output": 37
        },
        {
          "input": 38,
          "interpolation": "LINEAR",
          "output": 39
        },
        {
          "input": 40,
          "interpolation": "LINEAR",
          "output": 41
        },
        {
          "input": 42,
          "interpolation": "LINEAR",
          "output": 43
        },
        {
          "input": 44,
          "interpolation": "LINEAR",
          "output": 45
        },
        {
          "input": 46,
          "interpolation": "LINEAR",
          "output": 47
        },
        {
          "input": 48,
          "interpolation": "LINEAR",
          "output": 49
        },
        {
          "input": 50,
          "interpolation": "LINEAR",
          "output": 51
        },
        {
          "input": 52,
          "interpolation": "LINEAR",
          "output": 53
        },
        {
          "input": 54,
          "interpolation": "LINEAR",
          "output": 55
        },
        {
          "input": 56,
          "interpolation": "LINEAR",
          "output": 57
        },
        {
          "input": 58,
          "interpolation": "LINEAR",
          "output": 59
        },
        {
          "input": 60,
          "interpolation": "LINEAR",
          "output": 61
        },
        {
          "input": 62,
          "interpolation": "LINEAR",
          "output": 63
        },
        {
          "input": 64,
          "interpolation": "LINEAR",
          "output": 65
        },
        {
          "input": 66,
          "interpolation": "LINEAR",
          "output": 67
        },
        {
          "input": 68,
          "interpolation": "LINEAR",
          "output": 69
        },
        {
          "input": 70,
          "interpolation": "LINEAR",
          "output": 71
        },
        {
          "input": 72,
          "interpolation": "LINEAR",
          "output": 73
        },
        {
          "input": 74,
          "interpolation": "LINEAR",
          "output": 75
        },
        {
          "input": 76,
          "interpolation": "LINEAR",
          "output": 77
        },
        {
          "input": 78,
          "interpolation": "LINEAR",
          "output": 79
        },
        {
          "input": 80,
          "interpolation": "LINEAR",
          "output": 81
        },
        {
          "input": 82,
          "interpolation": "LINEAR",
          "output": 83
        },
        {
          "input": 84,
          "interpolation": "LINEAR",
          "output": 85
        }
      ]
    }
  ],
  "asset": {
    "extras": {
      "author": "Hobu (https://sketchfab.com/Hobu_Coffee)",
      "license": "CC-BY-4.0 (http://creativecommons.org/licenses/by/4.0/)",
      "source": "https://sketchfab.com/3d-models/ragno-monster-2e1a422e6f0048f98a786ceecac423d7",
      "title": "Ragno (Monster)"
    },
    "generator": "Sketchfab-15.8.0",
    "version": "2.0"
  },
  "bufferViews": [
    {
      "buffer": 0,
      "byteLength": 18984,
      "byteStride": 8,
      "name": "shortBufferViews",
      "target": 34962
    },
    {
      "buffer": 0,
      "byteLength": 43380,
      "byteOffset": 18984,
      "name": "floatBufferViews",
      "target": 34963
    },
    {
      "buffer": 0,
      "byteLength": 18984,
      "byteOffset": 62364,
      "byteStride": 8,
      "name": "floatBufferViews",
      "target": 34962
    },
    {
      "buffer": 0,
      "byteLength": 56952,
      "byteOffset": 81348,
      "byteStride": 12,
      "name": "floatBufferViews",
      "target": 34962
    },
    {
      "buffer": 0,
      "byteLength": 72128,
      "byteOffset": 138300,
      "byteStride": 16,
      "name": "floatBufferViews",
      "target": 34962
    },
    {
      "buffer": 0,
      "byteLength": 3648,
      "byteOffset": 210428,
      "name": "floatBufferViews"
    },
    {
      "buffer": 0,
      "byteLength": 15784,
      "byteOffset": 214076,
      "name": "floatBufferViews"
    },
    {
      "buffer": 0,
      "byteLength": 6564,
      "byteOffset": 229860,
      "byteStride": 12,
      "name": "floatBufferViews"
    },
    {
      "buffer": 0,
      "byteLength": 54384,
      "byteOffset": 236424,
      "byteStride": 16,
      "name": "floatBufferViews"
    }
  ],
  "buffers": [
    {
      "byteLength": 290808,
      "uri": "scene.bin"
    }
  ],
  "extensionsUsed": [
    "KHR_materials_emissive_strength"
  ],
  "images": [
    {
      "uri": "textures/Hair_baseColor.png"
    },
    {
      "uri": "textures/Hair_metallicRoughness.png"
    },
    {
      "uri": "textures/Hair_normal.png"
    },
    {
      "uri": "textures/Head_baseColor.png"
    },
    {
      "uri": "textures/Head_metallicRoughness.png"
    },
    {
      "uri": "textures/Head_normal.png"
    },
    {
      "uri": "textures/Body_baseColor.png"
    },
    {
      "uri": "textures/Body_metallicRoughness.png"
    },
    {
      "uri": "textures/Body_normal.png"
    }
  ],
  "materials": [
    {
      "doubleSided": true,
      "emissiveFactor": [
        0.2482802702197365,
        0.6732285588242783,
        1.0
      ],
      "extensions": {
        "KHR_materials_emissive_strength": {
          "emissiveStrength": 10.0
        }
      },
      "name": "ayez",
      "pbrMetallicRoughness": {
        "baseColorFactor": [
          0.8,
          0.8,
          0.8,
          1.0
        ],
        "metallicFactor": 0.0,
        "roughnessFactor": 0.8040408205773457
      }
    },
    {
      "doubleSided": true,
      "name": "Hair",
      "normalTexture": {
        "index": 2
      },
      "pbrMetallicRoughness": {
        "baseColorTexture": {
          "index": 0
        },
        "metallicFactor": 0.0,
        "metallicRoughnessTexture": {
          "index": 1
        }
      }
    },
    {
      "doubleSided": true,
      "name": "Head",
      "normalTexture": {
        "index": 5
      },
      "pbrMetallicRoughness": {
        "baseColorTexture": {
          "index": 3
        },
        "metallicRoughnessTexture": {
          "index": 4
        },
        "roughnessFactor": 0.7853881278538812
      }
    },
    {
      "doubleSided": true,
      "name": "Body",
      "normalTexture": {
        "index": 8
      },
      "pbrMetallicRoughness": {
        "baseColorTexture": {
          "index": 6
        },
        "metallicFactor": 0.0,
        "metallicRoughnessTexture": {
          "index": 7
        }
      }
    }
  ],
  "meshes": [
    {
      "name": "Esfera_ayez_0",
      "primitives": [
        {
          "attributes": {
            "JOINTS_0": 20,
            "NORMAL": 1,
            "POSITION": 0,
            "TEXCOORD_0": 2,
            "WEIGHTS_0": 21
          },
          "indices": 3,
          "material": 0,
          "mode": 4
        }
      ]
    },
    {
      "name": "Hair_Hair_0",
      "primitives": [
        {
          "attributes": {
            "JOINTS_0": 22,
            "NORMAL": 5,
            "POSITION": 4,
            "TANGENT": 6,
            "TEXCOORD_0": 7,
            "TEXCOORD_1": 7,
            "TEXCOORD_2": 7,
            "WEIGHTS_0": 23
          },
          "indices": 8,
          "material": 1,
          "mode": 4
        }
      ]
    },
    {
      "name": "Head _Head_0",
      "primitives": [
        {
          "attributes": {
            "JOINTS_0": 24,
            "NORMAL": 10,
            "POSITION": 9,
            "TANGENT": 11,
            "TEXCOORD_0": 12,
            "TEXCOORD_1": 12,
            "WEIGHTS_0": 25
          },
          "indices": 13,
          "material": 2,
          "mode": 4
        }
      ]
    },
    {
      "name": "Body_Body_0",
      "primitives": [
        {
          "attributes": {
            "JOINTS_0": 26,
            "NORMAL": 15,
            "POSITION": 14,
            "TANGENT": 16,
            "TEXCOORD_0": 17,
            "TEXCOORD_1": 17,
            "TEXCOORD_2": 17,
            "WEIGHTS_0": 27
          },
          "indices": 18,
          "material": 3,
          "mode": 4
        }
      ]
    }
  ],
  "nodes": [
    {
      "children": [
        1
      ],
      "matrix": [
        0.5623208284378052,
        0.0,
        0.0,
        0.0,
        0.0,
        1.2486030619158876e-16,
        -0.5623208284378052,
        0.0,
        0.0,
        0.5623208284378052,
        1.2486030619158876e-16,
        0.0,
        0.0,
        0.0,
        0.0,
        1.0
      ],
      "name": "Sketchfab_model"
    },
    {
      "children": [
        2
      ],
      "matrix": [
        0.009999999776482582,
        0.0,
        0.0,
        0.0,
        0.0,
        0.0,
        0.009999999776482582,
        0.0,
        0.0,
        -0.009999999776482582,
        0.0,
        0.0,
        0.0,
        0.0,
        0.0,
        1.0
      ],
      "name": "3d6634cbb12e428299fc02ca86747eb6.fbx"
    },
    {
      "children": [
        3
      ],
      "name": "Object_2"
    },
    {
      "children": [
        4,
        8
      ],
      "name": "RootNode"
    },
    {
      "children": [
        5
      ],
      "name": "Body",
      "scale": [
        0.11124522238969803,
        0.11124522238969803,
        0.11124522238969803
      ],
      "translation": [
        0.0,
        241.838623046875,
        0.0
      ]
    },
    {
      "children": [
        6,
        7
      ],
      "name": "Head ",
      "rotation": [
        0.7071068286895752,
        0.0,
        0.0,
        0.7071067094802856
      ],
      "scale": [
        0.9999997615814209,
        0.9999997615814209,
        0.9999997615814209
      ],
      "translation": [
        -0.4062003791332245,
        155.3437957763672,
        151.01560974121094
      ]
    },
    {
      "name": "Esfera",
      "scale": [
        0.11383014172315598,
        0.11383014172315598,
        0.11383014172315598
      ],
      "translation": [
        -9.313225746154785e-08,
        162.6239013671875,
        154.36642456054688
      ]
    },
    {
      "name": "Hair",
      "rotation": [
        0.7071068286895752,
        0.0,
        0.0,
        0.7071067094802856
      ],
      "scale": [
        0.05052941292524338,
        0.05052941292524338,
        0.05052941292524338
      ],
      "translation": [
        0.015730876475572586,
        143.5795135498047,
        121.27632141113281
      ]
    },
    {
      "children": [
        9
      ],
      "name": "Esqueleto",
      "rotation": [
        -0.7071068286895752,
        0.0,
        0.0,
        0.7071067094802856
      ],
      "scale": [
        100.0,
        100.0,
        100.0
      ],
      "translation": [
        0.0,
        162.6239013671875,
        0.0
      ]
    },
    {
      "children": [
        10,
        12,
        14,
        16,
        18,
        11,
        13,
        15,
        17
      ],
      "name": "Object_9"
    },
    {
      "children": [
        19,
        48,
        57,
        59,
        61,
        63,
        65,
        67,
        69,
        71,
        73
      ],
      "name": "_rootJoint"
    },
    {
      "matrix": [
        0.11383014502736262,
        -3.023788359458879e-14,
        -8.805595965675892e-15,
        0.0,
        3.0237882389107574e-14,
        0.11383014057741865,
        -3.0244554777292265e-10,
        0.0,
        8.80559634185381e-15,
        3.024455697574558e-10,
        0.11383014885164361,
        0.0,
        -9.319654844668196e-08,
        162.62390183679142,
        154.36642408266962,
        1.0
      ],
      "name": "Object_11"
    },
    {
      "mesh": 0,
      "name": "Object_12",
      "skin": 0
    },
    {
      "matrix": [
        0.05052941271220083,
        -8.111884801605185e-14,
        -1.1617878453846896e-14,
        0.0,
        1.1617885528609657e-14,
        3.844038404230252e-09,
        0.050529416642319434,
        0.0,
        -8.111884872171591e-14,
        -0.050529413702308075,
        3.8440381805681304e-09,
        0.0,
        0.01573087609744413,
        143.5795123103141,
        121.2763322383282,
        1.0
      ],
      "name": "Object_13"
    },
    {
      "mesh": 1,
      "name": "Object_14",
      "skin": 0
    },
    {
      "matrix": [
        0.9999996986431011,
        -3.0166812549760426e-12,
        -3.9063737020236713e-13,
        0.0,
        3.9063727622022523e-13,
        -3.8634300723233825e-08,
        0.9999997564083302,
        0.0,
        -3.016681402357946e-12,
        -0.9999997424958804,
        -3.8634300185735926e-08,
        0.0,
        -0.4062003921037755,
        155.34380090670743,
        151.0156094422808,
        1.0
      ],
      "name": "Object_15"
    },
    {
      "mesh": 2,
      "name": "Object_16",
      "skin": 0
    },
    {
      "matrix": [
        0.11124522429590851,
        -6.583882829251871e-14,
        -1.2738006086187205e-14,
        0.0,
        6.583882676310809e-14,
        0.11124522169046214,
        1.0990016188761055e-10,
        0.0,
        1.2738006646545884e-14,
        -1.099001698573538e-10,
        0.11124522975774648,
        0.0,
        3.692149751614542e-10,
        241.83862225180474,
        1.4985385732302348e-07,
        1.0
      ],
      "name": "Object_17"
    },
    {
      "mesh": 3,
      "name": "Object_18",
      "skin": 0
    },
    {
      "children": [
        20,
        24,
        30,
        36,
        42
      ],
      "name": "Bone_00",
      "rotation": [
        0.9983933568000793,
        -5.606745503428101e-07,
        9.87878411251586e-06,
        -0.056663382798433304
      ],
      "scale": [
        1.0,
        1.0,
        1.0000088214874268
      ],
      "translation": [
        1.0419344343241268e-16,
        0.19321875274181366,
        0.4692455530166626
      ]
    },
    {
      "children": [
        21
      ],
      "name": "Bone.001_01",
      "rotation": [
        0.43918341398239136,
        -1.0734561328717973e-05,
        8.16979900264414e-06,
        0.8983974456787109
      ],
      "scale": [
        1.0,
        0.9999986290931702,
        1.0000005960464478
      ],
      "translation": [
        -6.31382749902154e-13,
        0.31022199988365173,
        1.3969838619232178e-08
      ]
    },
    {
      "children": [
        22
      ],
      "name": "Bone.002_02",
      "rotation": [
        -0.062187206000089645,
        1.7763443493912234e-11,
        -1.2306159078434575e-06,
        0.9980645179748535
      ],
      "scale": [
        1.0,
        1.000002145767212,
        0.9999978542327881
      ],
      "translation": [
        -2.8421709430404007e-13,
        0.41500771045684814,
        -1.5343282200319663e-13
      ]
    },
    {
      "children": [
        23
      ],
      "name": "Bone.003_03",
      "rotation": [
        -0.4439694285392761,
        7.854439321164364e-11,
        -8.785727914073505e-06,
        0.8960419297218323
      ],
      "scale": [
        1.0,
        1.0000088214874268,
        0.9999915361404419
      ],
      "translation": [
        1.0231815394945443e-12,
        0.31756260991096497,
        8.196104062108134e-08
      ]
    },
    {
      "name": "Bone.003_end_040",
      "rotation": [
        2.2420775429197073e-43,
        -1.3234889800848443e-22,
        1.6940658945086007e-21,
        1.0
      ],
      "translation": [
        0.0,
        0.42334112524986267,
        2.220446049250313e-16
      ]
    },
    {
      "children": [
        25
      ],
      "name": "Bone.005_04",
      "rotation": [
        -0.672829806804657,
        -0.27624037861824036,
        -0.22603605687618256,
        0.6479961276054382
      ],
      "scale": [
        0.9999998807907104,
        0.9999997019767761,
        0.9999996423721313
      ],
      "translation": [
        0.16796132922172546,
        0.2831087112426758,
        -0.07545195519924164
      ]
    },
    {
      "children": [
        26
      ],
      "name": "Bone.006_05",
      "rotation": [
        -0.038835328072309494,
        2.1350899714889238e-06,
        -0.13177838921546936,
        0.9905182123184204
      ],
      "scale": [
        0.9999959468841553,
        1.0000042915344238,
        1.0
      ],
      "translation": [
        1.6239937394857407e-08,
        0.33892226219177246,
        5.587935447692871e-09
      ]
    },
    {
      "children": [
        27
      ],
      "name": "Bone.007_06",
      "rotation": [
        -0.003142931265756488,
        -1.5527679408933182e-07,
        0.18149426579475403,
        0.9833869934082031
      ],
      "scale": [
        1.0000054836273193,
        0.9999948143959045,
        1.0
      ],
      "translation": [
        -9.487848728895187e-09,
        0.34579846262931824,
        1.3271346688270569e-08
      ]
    },
    {
      "children": [
        28
      ],
      "name": "Bone.008_07",
      "rotation": [
        0.010860251262784004,
        8.648916605125123e-08,
        -0.6271394491195679,
        0.778831422328949
      ],
      "scale": [
        0.9999966025352478,
        1.0000035762786865,
        0.9999999403953552
      ],
      "translation": [
        3.2619573175907135e-07,
        0.7508695721626282,
        -3.550667315721512e-09
      ]
    },
    {
      "children": [
        29
      ],
      "name": "Bone.009_08",
      "rotation": [
        0.00450968649238348,
        -2.0951313217665302e-07,
        -0.26041901111602783,
        0.965485155582428
      ],
      "scale": [
        1.0000054836273193,
        0.9999948740005493,
        0.9999996423721313
      ],
      "translation": [
        2.153683453798294e-08,
        0.3316466808319092,
        6.51925802230835e-09
      ]
    },
    {
      "name": "Bone.009_end_041",
      "rotation": [
        8.673617379884035e-19,
        1.734723475976807e-18,
        -3.54940686217442e-17,
        1.0
      ],
      "translation": [
        4.440892098500626e-16,
        0.3358640968799591,
        1.3877787807814457e-17
      ]
    },
    {
      "children": [
        31
      ],
      "name": "Bone.011_09",
      "rotation": [
        0.8340746164321899,
        0.18728573620319366,
        0.2864444851875305,
        -0.43265825510025024
      ],
      "scale": [
        0.9999996423721313,
        0.9999991655349731,
        1.0000007152557373
      ],
      "translation": [
        0.11231732368469238,
        0.09743954241275787,
        -0.05430976301431656
      ]
    },
    {
      "children": [
        32
      ],
      "name": "Bone.012_010",
      "rotation": [
        -0.31352072954177856,
        0.09944295138120651,
        0.10531354695558548,
        0.9384694695472717
      ],
      "scale": [
        1.0000001192092896,
        1.0000032186508179,
        0.9999975562095642
      ],
      "translation": [
        2.1653249859809875e-08,
        0.41154366731643677,
        -1.1102230246251565e-16
      ]
    },
    {
      "children": [
        33
      ],
      "name": "Bone.013_011",
      "rotation": [
        0.16626346111297607,
        -0.2258005291223526,
        0.12195400893688202,
        0.9521017670631409
      ],
      "scale": [
        1.000006079673767,
        0.9999935626983643,
        0.9999995231628418
      ],
      "translation": [
        -1.6391277313232422e-07,
        0.3599593937397003,
        -2.9802322387695313e-08
      ]
    },
    {
      "children": [
        34
      ],
      "name": "Bone.014_012",
      "rotation": [
        0.17278295755386353,
        -0.5370230078697205,
        0.6606088280677795,
        -0.4953264594078064
      ],
      "scale": [
        0.9999976754188538,
        0.9999999403953552,
        1.0000028610229492
      ],
      "translation": [
        -4.470348358154297e-08,
        0.782376766204834,
        4.470348358154297e-08
      ]
    },
    {
      "children": [
        35
      ],
      "name": "Bone.015_013",
      "rotation": [
        0.12824171781539917,
        0.47436806559562683,
        0.07190889120101929,
        0.8679620623588562
      ],
      "scale": [
        1.0000027418136597,
        0.9999988079071045,
        0.9999994039535522
      ],
      "translation": [
        -8.940696716308594e-08,
        0.281637966632843,
        -5.960464477539063e-08
      ]
    },
    {
      "name": "Bone.015_end_042",
      "rotation": [
        -2.7755575615628914e-17,
        1.5407439555097887e-33,
        -5.551115123125783e-17,
        1.0
      ],
      "translation": [
        -1.1102230246251565e-16,
        0.32510071992874146,
        0.0
      ]
    },
    {
      "children": [
        37
      ],
      "name": "Bone.017_014",
      "rotation": [
        -0.6533592939376831,
        0.22984839975833893,
        0.27297350764274597,
        0.6676652431488037
      ],
      "scale": [
        1.0000001192092896,
        0.9999995827674866,
        0.9999995827674866
      ],
      "translation": [
        -0.1679583191871643,
        0.283108651638031,
        -0.07545853406190872
      ]
    },
    {
      "children": [
        38
      ],
      "name": "Bone.018_015",
      "rotation": [
        -0.03233702853322029,
        0.0827178880572319,
        0.13352179527282715,
        0.9870582818984985
      ],
      "scale": [
        0.9999948740005493,
        1.0000042915344238,
        1.0000004768371582
      ],
      "translation": [
        2.0489096641540527e-08,
        0.3389221727848053,
        3.725290298461914e-09
      ]
    },
    {
      "children": [
        39
      ],
      "name": "Bone.019_016",
      "rotation": [
        0.0031427121721208096,
        -6.999561037446256e-07,
        -0.1814943104982376,
        0.9833869934082031
      ],
      "scale": [
        1.0000054836273193,
        0.9999948740005493,
        1.0
      ],
      "translation": [
        2.6542693376541138e-08,
        0.3457985520362854,
        3.725290298461914e-09
      ]
    },
    {
      "children": [
        40
      ],
      "name": "Bone.020_017",
      "rotation": [
        -0.010858950205147266,
        -8.14532654658251e-08,
        0.6271392107009888,
        0.7788314819335938
      ],
      "scale": [
        0.9999968409538269,
        1.0000035762786865,
        0.9999995827674866
      ],
      "translation": [
        -2.2118911147117615e-08,
        0.750869870185852,
        5.587935447692871e-09
      ]
    },
    {
      "children": [
        41
      ],
      "name": "Bone.021_018",
      "rotation": [
        -0.0045091621577739716,
        1.823457473904e-08,
        0.26041898131370544,
        0.9654852747917175
      ],
      "scale": [
        1.0000057220458984,
        0.9999946355819702,
        1.000000238418579
      ],
      "translation": [
        1.3667158782482147e-07,
        0.33164680004119873,
        1.862645149230957e-09
      ]
    },
    {
      "name": "Bone.021_end_043",
      "rotation": [
        -2.710505431213761e-19,
        3.648165084876201e-36,
        -1.3459353531870832e-17,
        1.0
      ],
      "translation": [
        0.0,
        0.3358640968799591,
        0.0
      ]
    },
    {
      "children": [
        43
      ],
      "name": "Bone.023_019",
      "rotation": [
        0.8801398873329163,
        -0.33082231879234314,
        0.05342789366841316,
        -0.33623775839805603
      ],
      "scale": [
        0.9999999403953552,
        0.9999990463256836,
        1.0000004768371582
      ],
      "translation": [
        -0.11231517791748047,
        0.09743954241275787,
        -0.054314207285642624
      ]
    },
    {
      "children": [
        44
      ],
      "name": "Bone.024_020",
      "rotation": [
        -0.04771001264452934,
        0.23867568373680115,
        -0.32727620005607605,
        0.9130432605743408
      ],
      "scale": [
        0.999998927116394,
        1.0000022649765015,
        0.9999994039535522
      ],
      "translation": [
        8.940696716308594e-08,
        0.4115437865257263,
        7.450580596923828e-08
      ]
    },
    {
      "children": [
        45
      ],
      "name": "Bone.025_021",
      "rotation": [
        0.19352063536643982,
        -0.2374143898487091,
        0.07117657363414764,
        0.9492723941802979
      ],
      "scale": [
        1.0000059604644775,
        0.9999936819076538,
        0.9999997615814209
      ],
      "translation": [
        1.043081283569336e-07,
        0.35995930433273315,
        -2.9802322387695313e-08
      ]
    },
    {
      "children": [
        46
      ],
      "name": "Bone.026_022",
      "rotation": [
        -0.33197474479675293,
        0.6318643689155579,
        -0.5967004895210266,
        0.3667270541191101
      ],
      "scale": [
        1.0000015497207642,
        1.0000011920928955,
        0.9999984502792358
      ],
      "translation": [
        -2.9802322387695313e-08,
        0.7823770642280579,
        8.381903171539307e-09
      ]
    },
    {
      "children": [
        47
      ],
      "name": "Bone.027_023",
      "rotation": [
        0.012660747393965721,
        0.5260140895843506,
        -0.14648078382015228,
        0.8376707434654236
      ],
      "scale": [
        1.0000028610229492,
        0.9999982118606567,
        0.999997615814209
      ],
      "translation": [
        4.470348358154297e-08,
        0.2816378176212311,
        1.7881393432617188e-07
      ]
    },
    {
      "name": "Bone.027_end_044",
      "rotation": [
        -2.7755575615628914e-17,
        -1.3877787807814457e-17,
        2.7755575615628914e-17,
        1.0
      ],
      "translation": [
        0.0,
        0.32510071992874146,
        -4.440892098500626e-16
      ]
    },
    {
      "children": [
        49,
        53
      ],
      "name": "Bone.004_024",
      "rotation": [
        0.9998473525047302,
        1.729285372675804e-07,
        9.893740752886515e-06,
        0.01747276447713375
      ],
      "scale": [
        1.0,
        1.0,
        1.0000252723693848
      ],
      "translation": [
        -2.5741905661275544e-16,
        -0.9522925615310669,
        -0.15931250154972076
      ]
    },
    {
      "children": [
        50
      ],
      "name": "Bone.029_025",
      "rotation": [
        0.29798221588134766,
        0.6274784207344055,
        0.6498061418533325,
        -0.30859285593032837
      ],
      "scale": [
        1.0,
        1.0,
        0.9999999403953552
      ],
      "translation": [
        0.03163629397749901,
        0.32678917050361633,
        -0.6004942059516907
      ]
    },
    {
      "children": [
        51
      ],
      "name": "Bone.030_026",
      "rotation": [
        2.8380923140503e-06,
        -6.753026809747098e-06,
        -0.42355117201805115,
        0.9058721661567688
      ],
      "scale": [
        1.0,
        0.9999999403953552,
        1.0
      ],
      "translation": [
        -2.7152054826729e-08,
        0.281284898519516,
        3.85191469831625e-08
      ]
    },
    {
      "children": [
        52
      ],
      "name": "Bone.031_027",
      "rotation": [
        -2.4522634589629888e-08,
        -3.875192362556845e-07,
        -0.041652653366327286,
        0.9991321563720703
      ],
      "translation": [
        8.606775736552663e-09,
        0.48132944107055664,
        1.0906964575951861e-07
      ]
    },
    {
      "name": "Bone.031_end_045",
      "rotation": [
        -6.066655454586074e-40,
        2.117582368135751e-22,
        2.8648943498485678e-18,
        1.0
      ],
      "translation": [
        2.7755575615628914e-17,
        0.7169725298881531,
        0.0
      ]
    },
    {
      "children": [
        54
      ],
      "name": "Bone.032_028",
      "rotation": [
        -0.29799437522888184,
        0.6274719834327698,
        0.6498005390167236,
        0.308605819940567
      ],
      "scale": [
        0.9999998807907104,
        0.9999998807907104,
        0.9999999403953552
      ],
      "translation": [
        -0.03161252662539482,
        0.32678917050361633,
        -0.600495457649231
      ]
    },
    {
      "children": [
        55
      ],
      "name": "Bone.033_029",
      "rotation": [
        3.7783338484587148e-06,
        6.7477458287612535e-06,
        0.42355114221572876,
        0.9058722257614136
      ],
      "scale": [
        1.0000001192092896,
        1.0000001192092896,
        1.0
      ],
      "translation": [
        -1.9736032808026494e-09,
        0.28128495812416077,
        -6.526283868879545e-08
      ]
    },
    {
      "children": [
        56
      ],
      "name": "Bone.034_030",
      "rotation": [
        6.181957701301144e-08,
        5.353897449822398e-07,
        0.04165266826748848,
        0.9991321563720703
      ],
      "scale": [
        0.9999999403953552,
        0.9999999403953552,
        1.0
      ],
      "translation": [
        -7.723883754806593e-09,
        0.4813295304775238,
        2.4232896578268992e-08
      ]
    },
    {
      "name": "Bone.034_end_046",
      "rotation": [
        -4.235164736271502e-22,
        -1.2447538076812345e-39,
        2.9390926575897275e-18,
        1.0
      ],
      "translation": [
        2.7755575615628914e-17,
        0.7169725298881531,
        0.0
      ]
    },
    {
      "children": [
        58
      ],
      "name": "Bone.010_031",
      "rotation": [
        -0.005226407200098038,
        -0.7070720791816711,
        0.7070873379707336,
        0.007016482762992382
      ],
      "scale": [
        0.9999999403953552,
        1.000000238418579,
        1.0
      ],
      "translation": [
        1.6262145042419434,
        -0.12421207875013351,
        1.1548800468444824
      ]
    },
    {
      "name": "Bone.010_end_047",
      "rotation": [
        -3.3881317890172014e-21,
        1.734723475976807e-18,
        -6.662319448655223e-21,
        1.0
      ],
      "translation": [
        0.0,
        2.559971332550049,
        0.0
      ]
    },
    {
      "children": [
        60
      ],
      "name": "Bone.016_032",
      "rotation": [
        -0.0004156358481850475,
        0.7097486853599548,
        -0.7044532895088196,
        -0.0014799730852246284
      ],
      "scale": [
        1.0,
        1.000000238418579,
        1.0
      ],
      "translation": [
        0.5775225162506104,
        1.5172417163848877,
        1.2373520135879517
      ]
    },
    {
      "name": "Bone.016_end_048",
      "rotation": [
        0.0,
        0.0,
        4.989024059327829e-19,
        1.0
      ],
      "translation": [
        1.1102230246251565e-16,
        2.716240167617798,
        -2.220446049250313e-16
      ]
    },
    {
      "children": [
        62
      ],
      "name": "Bone.022_033",
      "rotation": [
        0.007016483228653669,
        0.7070876359939575,
        -0.7070719003677368,
        -0.005226407665759325
      ],
      "scale": [
        0.9999999403953552,
        1.000000238418579,
        1.0
      ],
      "translation": [
        -1.6262145042419434,
        -0.12421207875013351,
        1.1548800468444824
      ]
    },
    {
      "name": "Bone.022_end_049",
      "rotation": [
        -6.485096002415737e-22,
        1.734723475976807e-18,
        5.540869333186456e-21,
        1.0
      ],
      "translation": [
        -2.220446049250313e-16,
        2.559971332550049,
        0.0
      ]
    },
    {
      "children": [
        64
      ],
      "name": "Bone.028_034",
      "rotation": [
        0.0014829208375886083,
        0.7097501158714294,
        -0.704451858997345,
        0.0004045291570946574
      ],
      "scale": [
        1.0,
        1.0000001192092896,
        1.0
      ],
      "translation": [
        -0.5775225162506104,
        1.5172417163848877,
        1.2373520135879517
      ]
    },
    {
      "name": "Bone.028_end_050",
      "rotation": [
        1.7081402285386365e-38,
        2.168404344971009e-19,
        -7.877406409464993e-20,
        1.0
      ],
      "translation": [
        -1.1102230246251565e-16,
        2.716240167617798,
        0.0
      ]
    },
    {
      "children": [
        66
      ],
      "name": "Bone.035_035",
      "rotation": [
        0.7063589692115784,
        0.04473833739757538,
        -0.03251364082098007,
        0.7056899666786194
      ],
      "translation": [
        1.1529325246810913,
        -0.12421216070652008,
        1.7752258777618408
      ]
    },
    {
      "name": "Bone.035_end_051",
      "rotation": [
        1.8838542142527673e-19,
        -1.297813491986222e-36,
        -6.889139817242776e-18,
        1.0
      ],
      "translation": [
        0.0,
        0.4991236925125122,
        0.0
      ]
    },
    {
      "children": [
        68
      ],
      "name": "Bone.037_036",
      "rotation": [
        0.3804098963737488,
        0.6140550374984741,
        0.5386964678764343,
        0.4336255192756653
      ],
      "scale": [
        1.0,
        1.0000001192092896,
        1.0000001192092896
      ],
      "translation": [
        0.4263632297515869,
        1.1150240898132324,
        1.7286522388458252
      ]
    },
    {
      "name": "Bone.037_end_052",
      "rotation": [
        -3.469446951953614e-18,
        -5.551115123125783e-17,
        6.938893903907228e-18,
        1.0
      ],
      "translation": [
        1.1102230246251565e-16,
        0.4605962932109833,
        0.0
      ]
    },
    {
      "children": [
        70
      ],
      "name": "Bone.038_037",
      "rotation": [
        0.2582465410232544,
        0.6916930675506592,
        0.6068065166473389,
        0.29437264800071716
      ],
      "scale": [
        1.0,
        1.0000001192092896,
        1.0000001192092896
      ],
      "translation": [
        -0.4263632297515869,
        1.1150240898132324,
        1.7286522388458252
      ]
    },
    {
      "name": "Bone.038_end_053",
      "rotation": [
        -6.938893903907228e-18,
        8.326672684688674e-17,
        -6.938893903907228e-18,
        1.0
      ],
      "translation": [
        1.1102230246251565e-16,
        0.4605962932109833,
        -1.1102230246251565e-16
      ]
    },
    {
      "children": [
        72
      ],
      "name": "Bone.036_038",
      "rotation": [
        0.7056902050971985,
        -0.03251367807388306,
        0.044738300144672394,
        0.7063587307929993
      ],
      "scale": [
        0.9999999403953552,
        1.0,
        1.0
      ],
      "translation": [
        -1.1529325246810913,
        -0.12421216070652008,
        1.7752258777618408
      ]
    },
    {
      "name": "Bone.036_end_054",
      "rotation": [
        8.176514918964168e-20,
        2.7880144563104844e-38,
        3.409783241550777e-19,
        1.0
      ],
      "translation": [
        0.0,
        0.4991236925125122,
        1.3877787807814457e-17
      ]
    },
    {
      "children": [
        74
      ],
      "name": "Bone.039_039",
      "rotation": [
        -0.5298945307731628,
        8.391059054702055e-06,
        -5.242974111752119e-06,
        0.8480635285377502
      ],
      "translation": [
        -2.9126789608335617e-16,
        -0.42988482117652893,
        -0.311754047870636
      ]
    },
    {
      "name": "Bone.039_end_055",
      "rotation": [
        2.7755575615628914e-17,
        1.6940658945086007e-21,
        -4.70197740328915e-38,
        1.0
      ],
      "translation": [
        -8.470329472543003e-22,
        0.5026422142982483,
        5.551115123125783e-17
      ]
    }
  ],
  "samplers": [
    {
      "magFilter": 9729,
      "minFilter": 9987,
      "wrapS": 10497,
      "wrapT": 10497
    }
  ],
  "scene": 0,
  "scenes": [
    {
      "name": "Sketchfab_Scene",
      "nodes": [
        0
      ]
    }
  ],
  "skins": [
    {
      "inverseBindMatrices": 19,
      "joints": [
        10,
        19,
        20,
        21,
        22,
        23,
        24,
        25,
        26,
        27,
        28,
        29,
        30,
        31,
        32,
        33,
        34,
        35,
        36,
        37,
        38,
        39,
        40,
        41,
        42,
        43,
        44,
        45,
        46,
        47,
        48,
        49,
        50,
        51,
        52,
        53,
        54,
        55,
        56,
        57,
        58,
        59,
        60,
        61,
        62,
        63,
        64,
        65,
        66,
        67,
        68,
        69,
        70,
        71,
        72,
        73,
        74
      ],
      "skeleton": 10
    }
  ],
  "textures": [
    {
      "sampler": 0,
      "source": 0
    },
    {
      "sampler": 0,
      "source": 1
    },
    {
      "sampler": 0,
      "source": 2
    },
    {
      "sampler": 0,
      "source": 3
    },
    {
      "sampler": 0,
      "source": 4
    },
    {
      "sampler": 0,
      "source": 5
    },
    {
      "sampler": 0,
      "source": 6
    },
    {
      "sampler": 0,
      "source": 7
    },
    {
      "sampler": 0,
      "source": 8
    }
  ]
}
